<svg xmlns="http://www.w3.org/2000/svg" x="0px" y="0px" width="100" height="100" viewBox="0,0,255.99687,255.99687">
<defs><clipPath id="clip-1"><path d="M0,255.99687v-255.99687h255.99687v255.99687zM162.36596,125.91999c-0.24445,-4.30225 -3.16446,-7.9245 -7.26227,-9.14228c2.03779,-3.73336 1.54668,-8.39561 -1.38445,-11.68674c-0.89112,-0.99334 -1.83557,-1.93779 -2.81557,-2.8178c-1.94001,-1.69112 -4.34669,-2.59779 -6.82449,-2.59779c-1.71557,0 -3.37113,0.42445 -4.85336,1.23779c-1.22001,-4.08892 -4.84003,-7.01782 -9.20228,-7.30227c-0.71112,-0.04 -1.38223,-0.06 -2.05335,-0.06c-0.67112,0 -1.34001,0.02 -2.00224,0.05778c-4.38225,0.32222 -7.97561,3.25335 -9.18895,7.29782c-1.48668,-0.80223 -3.14669,-1.22667 -4.86003,-1.22667c-2.50002,0 -4.92003,0.92001 -6.81338,2.59113c-0.95556,0.85334 -1.90001,1.79557 -2.82668,2.82224c-2.90446,3.2978 -3.38891,7.92894 -1.3689,11.68674c-4.08669,1.20223 -7.01782,4.81781 -7.30005,9.20673c-0.07778,1.38001 -0.07778,2.73113 -0.00222,4.05336c0.32445,4.40669 3.25113,7.99561 7.2956,9.19339c-2.02668,3.74669 -1.53557,8.38005 1.36223,11.66896c0.88001,0.98445 1.82446,1.9289 2.82668,2.83113c1.92001,1.69112 4.33114,2.60446 6.82671,2.60446c1.71112,0 3.36669,-0.42222 4.85559,-1.22667c1.20667,4.10892 4.83559,7.04227 9.24006,7.29116c0.69112,0.02222 1.30445,0.04667 1.92001,0.04667c0.74667,0 1.47557,-0.02667 2.16446,-0.08c4.28892,-0.24222 7.90672,-3.16669 9.12673,-7.26671c1.48445,0.80667 3.1378,1.22667 4.84892,1.22667c2.50446,0 4.92892,-0.92001 6.82227,-2.59113c0.90001,-0.78445 1.83557,-1.71779 2.83557,-2.83113c2.91335,-3.30891 3.40224,-7.93783 1.37334,-11.68007c4.06891,-1.21112 7.00449,-4.83336 7.28894,-9.20228c0.08,-1.38668 0.07111,-2.76002 -0.02889,-4.10447z" id="overlayBgMask" fill="none"></path></clipPath><linearGradient x1="32" y1="7" x2="32" y2="58" gradientUnits="userSpaceOnUse" id="color-1_kTuxVYRKeKEY_gr1"><stop offset="0" stop-color="#6dc7ff"></stop><stop offset="0.699" stop-color="#e6abff"></stop></linearGradient><linearGradient x1="32" y1="0.872" x2="32" y2="62.679" gradientUnits="userSpaceOnUse" id="color-2_kTuxVYRKeKEY_gr2"><stop offset="0" stop-color="#1a6dff"></stop><stop offset="1" stop-color="#c822ff"></stop></linearGradient><linearGradient x1="13.5002" y1="0.00049" x2="13.5002" y2="27" gradientUnits="userSpaceOnUse" id="color-3_kTuxVYRKeKEY_gr3"><stop offset="0" stop-color="#1a6dff"></stop><stop offset="1" stop-color="#c822ff"></stop></linearGradient><linearGradient x1="13.5" y1="0" x2="13.5" y2="26.7547" gradientUnits="userSpaceOnUse" id="color-4_kTuxVYRKeKEY_gr4"><stop offset="0" stop-color="#1a6dff"></stop><stop offset="1" stop-color="#c822ff"></stop></linearGradient></defs><g transform="translate(5.11994,5.11994) scale(0.96,0.96)"><g clip-path="url(#clip-1)" fill="none" fill-rule="nonzero" stroke="none" stroke-width="1" stroke-linecap="butt" stroke-linejoin="miter" stroke-miterlimit="10" stroke-dasharray="" stroke-dashoffset="0" font-family="none" font-weight="none" font-size="none" text-anchor="none" style="mix-blend-mode: normal"><g transform="scale(4,4)"><path d="M53.27,26.96c0.28,-1.05 0.42,-2.11 0.42,-3.17c0,-6.86 -5.58,-12.43 -12.43,-12.43c-0.77,0 -1.56,0.07 -2.35,0.23c-2.37,-2.92 -5.85,-4.59 -9.63,-4.59c-5.55,0 -10.36,3.62 -11.92,8.89c-5.93,1.01 -10.32,6.16 -10.32,12.25c0,3.45 1.43,6.72 3.93,9.07c-0.44,1.3 -0.66,2.64 -0.66,4c0,6.86 5.58,12.43 12.43,12.43c0.44,0 0.88,-0.02 1.38,-0.08c2.38,2.83 5.81,4.44 9.51,4.44c5.88,0 10.96,-4.19 12.16,-9.88c6.32,-0.63 11.17,-5.91 11.17,-12.35c0,-3.31 -1.34,-6.48 -3.69,-8.81zM38.25,35.88l-6.63,4l-6.5,-4v-7.26l6.63,-3.87l6.63,3.75z" fill="url(#color-1_kTuxVYRKeKEY_gr1)"></path><path d="M53.274,26.955c0.275,-1.045 0.415,-2.107 0.415,-3.166c0,-6.855 -5.578,-12.434 -12.434,-12.434c-0.766,0 -1.553,0.079 -2.35,0.235c-2.369,-2.925 -5.843,-4.59 -9.627,-4.59c-5.549,0 -10.353,3.622 -11.913,8.891c-5.93,1.012 -10.32,6.163 -10.32,12.254c0,3.448 1.424,6.715 3.93,9.07c-0.44,1.299 -0.664,2.64 -0.664,3.996c0,6.855 5.578,12.434 12.434,12.434c0.433,0 0.874,-0.027 1.38,-0.087c2.376,2.831 5.809,4.442 9.508,4.442c5.875,0 10.96,-4.192 12.152,-9.878c6.327,-0.629 11.17,-5.908 11.17,-12.355c0.001,-3.304 -1.333,-6.481 -3.681,-8.812zM51.689,23.789c0,0.646 -0.07,1.293 -0.193,1.937l-12.293,-7.185l-13.146,7.991v-4.91l12.814,-7.972c0.813,-0.191 1.615,-0.295 2.383,-0.295c5.754,0 10.435,4.681 10.435,10.434zM37.397,35.171l-5.563,3.316l-5.776,-3.303v-6.311l5.465,-3.322l-0.031,0.052l5.905,3.48zM29.278,9c2.997,0 5.755,1.251 7.728,3.457l-12.948,8.054v13.529l-4.898,-2.801v-14.317c1.159,-4.668 5.302,-7.922 10.118,-7.922zM9.044,28.145c0,-4.923 3.419,-9.109 8.116,-10.169v14.424l12.701,7.264l-5.227,3.115l-11.897,-6.674c-2.345,-1.998 -3.693,-4.894 -3.693,-7.96zM12.311,41.211c0,-0.955 0.138,-1.902 0.4,-2.828l11.954,6.706l12.732,-7.588v6.27l-13.172,7.754c-0.57,0.078 -1.043,0.12 -1.48,0.12c-5.753,0 -10.434,-4.681 -10.434,-10.434zM33.633,56c-2.886,0 -5.578,-1.175 -7.546,-3.252l13.31,-7.835v-14.652l4.539,2.675v14.154c-0.744,5.083 -5.163,8.91 -10.303,8.91zM45.936,46.091v-14.298l-6.539,-3.853v-0.068h-0.115l-5.879,-3.465l5.821,-3.538l12.309,7.195c2.174,1.981 3.422,4.782 3.422,7.703c0.001,5.288 -3.885,9.639 -9.019,10.324z" fill="url(#color-2_kTuxVYRKeKEY_gr2)"></path></g></g><g fill="none" fill-rule="nonzero" stroke="none" stroke-width="1" stroke-linecap="butt" stroke-linejoin="miter" stroke-miterlimit="10" stroke-dasharray="" stroke-dashoffset="0" font-family="none" font-weight="none" font-size="none" text-anchor="none" style="mix-blend-mode: normal"><g transform="translate(97.99861,97.99953) scale(2.22224,2.22224)" id="overlay"><path d="M13.473,27c-0.251,0 -0.502,-0.006 -0.753,-0.021c-1.236,-0.073 -2.237,-0.977 -2.433,-2.195c-0.072,-0.446 -0.143,-0.886 -0.205,-1.257c-0.431,-0.147 -0.851,-0.321 -1.254,-0.522c-0.329,0.239 -0.715,0.518 -1.045,0.752c-0.989,0.711 -2.329,0.645 -3.252,-0.168c-0.397,-0.354 -0.769,-0.725 -1.11,-1.104c-0.825,-0.93 -0.893,-2.275 -0.169,-3.277l0.325,-0.452c0.143,-0.196 0.287,-0.396 0.417,-0.579c-0.205,-0.423 -0.377,-0.842 -0.516,-1.257l-1.263,-0.21c-1.207,-0.194 -2.109,-1.186 -2.191,-2.41c-0.031,-0.522 -0.031,-1.05 -0.001,-1.577c0.075,-1.24 0.978,-2.24 2.197,-2.436l0.155,-0.025c0.358,-0.058 0.755,-0.122 1.1,-0.181c0.146,-0.431 0.321,-0.849 0.522,-1.253l-0.748,-1.042c-0.713,-0.997 -0.648,-2.336 0.159,-3.255c0.373,-0.411 0.743,-0.78 1.11,-1.11c0.928,-0.822 2.272,-0.891 3.274,-0.171l0.416,0.299c0.21,0.151 0.424,0.305 0.618,0.443c0.426,-0.208 0.847,-0.382 1.258,-0.52l0.208,-1.262c0.194,-1.205 1.186,-2.105 2.41,-2.188c0.52,-0.029 1.047,-0.029 1.577,0c1.233,0.075 2.233,0.976 2.435,2.19l0.061,0.37c0.048,0.299 0.099,0.612 0.146,0.892c0.443,0.15 0.862,0.325 1.251,0.521l1.047,-0.749c0.979,-0.713 2.318,-0.65 3.248,0.159c0.394,0.354 0.765,0.725 1.115,1.114c0.821,0.925 0.89,2.269 0.171,3.272c-0.235,0.324 -0.512,0.707 -0.744,1.034c0.21,0.43 0.383,0.85 0.517,1.257l0.373,0.062c0.304,0.049 0.62,0.101 0.9,0.15c1.2,0.191 2.101,1.186 2.176,2.414c0.032,0.541 0.034,1.069 0.005,1.571v0.004c-0.075,1.229 -0.975,2.228 -2.19,2.43c-0.408,0.062 -0.869,0.14 -1.262,0.207c-0.147,0.43 -0.322,0.85 -0.522,1.253c0.238,0.328 0.518,0.715 0.751,1.046c0.713,0.991 0.645,2.33 -0.17,3.249c-0.345,0.392 -0.717,0.767 -1.103,1.113c-0.935,0.82 -2.279,0.891 -3.276,0.169c-0.327,-0.238 -0.706,-0.512 -1.031,-0.742c-0.42,0.205 -0.838,0.377 -1.257,0.517l-0.208,1.262c-0.198,1.213 -1.192,2.113 -2.419,2.188c-0.261,0.019 -0.54,0.025 -0.82,0.025zM8.798,20.954c0.266,0 0.533,0.062 0.78,0.189c0.417,0.216 0.851,0.396 1.294,0.539c0.607,0.189 1.052,0.706 1.154,1.346c0.068,0.397 0.151,0.914 0.223,1.358c0.06,0.371 0.292,0.579 0.589,0.597c0.441,0.026 0.886,0.027 1.32,-0.004c0.3,-0.019 0.532,-0.229 0.578,-0.515l0.232,-1.418c0.107,-0.661 0.553,-1.176 1.167,-1.37c0.438,-0.137 0.873,-0.314 1.295,-0.53c0.55,-0.298 1.236,-0.249 1.768,0.136c0.35,0.245 0.804,0.573 1.184,0.851c0.231,0.166 0.55,0.15 0.773,-0.046c0.321,-0.288 0.638,-0.607 0.934,-0.942c0.192,-0.217 0.208,-0.53 0.041,-0.764c-0.271,-0.383 -0.597,-0.832 -0.854,-1.186c-0.375,-0.522 -0.425,-1.198 -0.133,-1.77c0.217,-0.418 0.398,-0.852 0.54,-1.295c0.192,-0.608 0.71,-1.053 1.351,-1.154c0.424,-0.073 0.978,-0.167 1.443,-0.237c0.279,-0.047 0.489,-0.278 0.508,-0.574c0.024,-0.425 0.022,-0.875 -0.005,-1.337c-0.018,-0.289 -0.224,-0.516 -0.512,-0.562c-0.288,-0.051 -0.595,-0.101 -0.89,-0.148l-0.458,-0.075c-0.718,-0.112 -1.234,-0.552 -1.438,-1.16c-0.131,-0.435 -0.308,-0.866 -0.535,-1.312c-0.292,-0.563 -0.242,-1.243 0.136,-1.766c0.245,-0.35 0.577,-0.809 0.848,-1.183c0.171,-0.238 0.156,-0.551 -0.04,-0.771c-0.298,-0.332 -0.618,-0.652 -0.948,-0.948c-0.214,-0.187 -0.522,-0.201 -0.757,-0.032l-1.197,0.856c-0.504,0.373 -1.186,0.429 -1.762,0.133c-0.401,-0.213 -0.832,-0.392 -1.295,-0.54c-0.611,-0.193 -1.055,-0.712 -1.156,-1.353c-0.053,-0.309 -0.117,-0.697 -0.176,-1.064l-0.059,-0.365c-0.049,-0.291 -0.281,-0.501 -0.579,-0.52c-0.448,-0.025 -0.898,-0.025 -1.335,0c-0.281,0.02 -0.515,0.23 -0.561,0.513l-0.223,1.353c-0.113,0.725 -0.558,1.242 -1.175,1.438c-0.422,0.131 -0.857,0.311 -1.297,0.535c-0.566,0.292 -1.244,0.239 -1.767,-0.137c-0.223,-0.158 -0.498,-0.356 -0.766,-0.549l-0.41,-0.295c-0.243,-0.177 -0.556,-0.159 -0.778,0.036c-0.311,0.281 -0.633,0.603 -0.95,0.952c-0.18,0.204 -0.194,0.522 -0.024,0.759l0.852,1.187c0.372,0.514 0.424,1.193 0.133,1.765c-0.22,0.422 -0.401,0.854 -0.542,1.292c-0.188,0.61 -0.708,1.059 -1.354,1.159c-0.37,0.063 -0.847,0.141 -1.272,0.21l-0.156,0.025c-0.293,0.047 -0.5,0.279 -0.519,0.578c-0.025,0.447 -0.025,0.897 0,1.334c0.019,0.286 0.227,0.516 0.517,0.562l1.347,0.223c0.718,0.112 1.234,0.552 1.438,1.161c0.14,0.445 0.318,0.881 0.537,1.315c0.292,0.561 0.241,1.241 -0.138,1.765c-0.148,0.212 -0.336,0.472 -0.521,0.729l-0.322,0.446c-0.177,0.245 -0.161,0.557 0.036,0.779c0.289,0.32 0.608,0.639 0.946,0.939c0.216,0.189 0.525,0.207 0.764,0.037c0.382,-0.271 0.832,-0.598 1.186,-0.854c0.295,-0.213 0.641,-0.321 0.99,-0.321zM10.264,23.588c0.001,0 0.003,0.001 0.004,0.001c-0.001,0 -0.003,-0.001 -0.004,-0.001zM10.053,23.354c0,0.002 0.001,0.003 0.001,0.005c0,-0.002 -0.001,-0.003 -0.001,-0.005zM18.36,22.917c-0.004,0.002 -0.009,0.005 -0.014,0.007c0.005,-0.002 0.009,-0.005 0.014,-0.007zM18.038,22.911c0.001,0.002 0.003,0.003 0.005,0.004c-0.002,-0.001 -0.004,-0.003 -0.005,-0.004zM4.075,18.34c0.001,0.002 0.002,0.005 0.003,0.007c-0.001,-0.002 -0.002,-0.005 -0.003,-0.007zM4.091,18.037c-0.001,0.002 -0.003,0.004 -0.004,0.006c0.001,-0.002 0.002,-0.004 0.004,-0.006zM23.365,16.948c-0.002,0 -0.003,0.001 -0.005,0.001c0.002,0 0.003,0 0.005,-0.001zM23.588,16.738c0,0.001 0,0.001 -0.001,0.002c0,-0.001 0,-0.001 0.001,-0.002zM3.414,10.26c0,0.003 -0.001,0.005 -0.002,0.007c0.001,-0.002 0.002,-0.004 0.002,-0.007zM3.643,10.053c-0.002,0 -0.004,0.001 -0.007,0.001c0.002,0 0.004,-0.001 0.007,-0.001zM4.103,8.975c0,0.001 0,0.001 0,0zM22.915,8.96c-0.001,0.002 -0.002,0.003 -0.003,0.005c0.001,-0.002 0.002,-0.003 0.003,-0.005zM22.925,8.656c0,0.002 0.001,0.003 0.002,0.004c-0.001,-0.001 -0.002,-0.002 -0.002,-0.004zM18.02,4.104c-0.002,0.002 -0.004,0.004 -0.007,0.005zM8.959,4.087c0.002,0.001 0.003,0.002 0.005,0.004c-0.001,-0.002 -0.003,-0.003 -0.005,-0.004zM8.661,4.075c-0.001,0.001 -0.003,0.001 -0.004,0.002c0.001,-0.001 0.003,-0.001 0.004,-0.002zM16.948,3.637c0,0.002 0.001,0.004 0.001,0.006c0,-0.002 0,-0.004 -0.001,-0.006zM16.738,3.415h0.001z" fill="url(#color-3_kTuxVYRKeKEY_gr3)"></path><path d="M13.5,19c-3.033,0 -5.5,-2.468 -5.5,-5.5c0,-3.032 2.467,-5.5 5.5,-5.5c3.033,0 5.5,2.468 5.5,5.5c0,3.032 -2.467,5.5 -5.5,5.5zM13.5,10c-1.93,0 -3.5,1.57 -3.5,3.5c0,1.93 1.57,3.5 3.5,3.5c1.93,0 3.5,-1.57 3.5,-3.5c0,-1.93 -1.57,-3.5 -3.5,-3.5z" fill="url(#color-4_kTuxVYRKeKEY_gr4)"></path></g></g></g>
</svg>